<mxfile host="app.diagrams.net" modified="2024-05-23T06:56:17.094Z" agent="Mozilla/5.0 (Windows NT 10.0; Win64; x64) AppleWebKit/537.36 (KHTML, like Gecko) Chrome/123.0.0.0 Safari/537.36 OPR/109.0.0.0" etag="nt8Rt8DC9FSrUkhJXyfl" version="24.4.4" type="github">
  <diagram name="Page-1" id="tSw_nZBupSeZd47YfLvn">
    <mxGraphModel dx="570" dy="339" grid="1" gridSize="10" guides="1" tooltips="1" connect="1" arrows="1" fold="1" page="1" pageScale="1" pageWidth="827" pageHeight="1169" math="0" shadow="0">
      <root>
        <mxCell id="0" />
        <mxCell id="1" parent="0" />
        <mxCell id="8OtFmosBrlprI2sc53SW-31" value="" style="group" parent="1" vertex="1" connectable="0">
          <mxGeometry x="310" y="70" width="180" height="90" as="geometry" />
        </mxCell>
        <mxCell id="8OtFmosBrlprI2sc53SW-26" value="" style="rounded=1;whiteSpace=wrap;html=1;fillColor=#f8cecc;strokeColor=#b85450;container=0;" parent="8OtFmosBrlprI2sc53SW-31" vertex="1">
          <mxGeometry width="170" height="60" as="geometry" />
        </mxCell>
        <mxCell id="8OtFmosBrlprI2sc53SW-10" value="" style="sketch=0;outlineConnect=0;fontColor=#232F3E;gradientColor=none;fillColor=#232F3D;strokeColor=none;dashed=0;verticalLabelPosition=bottom;verticalAlign=top;align=center;html=1;fontSize=12;fontStyle=0;aspect=fixed;pointerEvents=1;shape=mxgraph.aws4.traditional_server;container=0;" parent="8OtFmosBrlprI2sc53SW-31" vertex="1">
          <mxGeometry x="60" y="5" width="28.85" height="50" as="geometry" />
        </mxCell>
        <mxCell id="8OtFmosBrlprI2sc53SW-18" value="2" style="text;html=1;align=center;verticalAlign=middle;whiteSpace=wrap;rounded=0;container=0;" parent="8OtFmosBrlprI2sc53SW-31" vertex="1">
          <mxGeometry x="62.91999999999996" y="25" width="23" height="30" as="geometry" />
        </mxCell>
        <mxCell id="8OtFmosBrlprI2sc53SW-27" value="Role Data" style="text;html=1;align=center;verticalAlign=middle;whiteSpace=wrap;rounded=0;fontStyle=1" parent="8OtFmosBrlprI2sc53SW-31" vertex="1">
          <mxGeometry x="50.00000000000003" y="60" width="75.58" height="30" as="geometry" />
        </mxCell>
        <mxCell id="8OtFmosBrlprI2sc53SW-11" value="" style="sketch=0;outlineConnect=0;fontColor=#232F3E;gradientColor=none;fillColor=#232F3D;strokeColor=none;dashed=0;verticalLabelPosition=bottom;verticalAlign=top;align=center;html=1;fontSize=12;fontStyle=0;aspect=fixed;pointerEvents=1;shape=mxgraph.aws4.traditional_server;container=0;" parent="8OtFmosBrlprI2sc53SW-31" vertex="1">
          <mxGeometry x="10" y="5" width="28.85" height="50" as="geometry" />
        </mxCell>
        <mxCell id="8OtFmosBrlprI2sc53SW-12" value="" style="sketch=0;outlineConnect=0;fontColor=#232F3E;gradientColor=none;fillColor=#232F3D;strokeColor=none;dashed=0;verticalLabelPosition=bottom;verticalAlign=top;align=center;html=1;fontSize=12;fontStyle=0;aspect=fixed;pointerEvents=1;shape=mxgraph.aws4.traditional_server;container=0;" parent="8OtFmosBrlprI2sc53SW-31" vertex="1">
          <mxGeometry x="125.58" y="5" width="28.85" height="50" as="geometry" />
        </mxCell>
        <mxCell id="8OtFmosBrlprI2sc53SW-19" value="n" style="text;html=1;align=center;verticalAlign=middle;whiteSpace=wrap;rounded=0;container=0;" parent="8OtFmosBrlprI2sc53SW-31" vertex="1">
          <mxGeometry x="128.49999999999997" y="25" width="23" height="30" as="geometry" />
        </mxCell>
        <mxCell id="8OtFmosBrlprI2sc53SW-17" value="1" style="text;html=1;align=center;verticalAlign=middle;whiteSpace=wrap;rounded=0;container=0;" parent="8OtFmosBrlprI2sc53SW-31" vertex="1">
          <mxGeometry x="12.92999999999995" y="25" width="23" height="30" as="geometry" />
        </mxCell>
        <mxCell id="8OtFmosBrlprI2sc53SW-33" value="" style="group" parent="1" vertex="1" connectable="0">
          <mxGeometry x="80" y="300" width="170" height="90" as="geometry" />
        </mxCell>
        <mxCell id="8OtFmosBrlprI2sc53SW-8" value="Role Ingress" style="text;html=1;align=center;verticalAlign=middle;whiteSpace=wrap;rounded=0;fontStyle=1" parent="8OtFmosBrlprI2sc53SW-33" vertex="1">
          <mxGeometry x="47.21" y="60" width="75.58" height="30" as="geometry" />
        </mxCell>
        <mxCell id="8OtFmosBrlprI2sc53SW-7" value="" style="rounded=1;whiteSpace=wrap;html=1;fillColor=#d5e8d4;strokeColor=#82b366;" parent="8OtFmosBrlprI2sc53SW-33" vertex="1">
          <mxGeometry width="170" height="60" as="geometry" />
        </mxCell>
        <mxCell id="8OtFmosBrlprI2sc53SW-1" value="" style="sketch=0;outlineConnect=0;fontColor=#232F3E;gradientColor=none;fillColor=#232F3D;strokeColor=none;dashed=0;verticalLabelPosition=bottom;verticalAlign=top;align=center;html=1;fontSize=12;fontStyle=0;aspect=fixed;pointerEvents=1;shape=mxgraph.aws4.traditional_server;" parent="8OtFmosBrlprI2sc53SW-33" vertex="1">
          <mxGeometry x="9.999999999999993" y="5" width="28.85" height="50" as="geometry" />
        </mxCell>
        <mxCell id="8OtFmosBrlprI2sc53SW-3" value="" style="sketch=0;outlineConnect=0;fontColor=#232F3E;gradientColor=none;fillColor=#232F3D;strokeColor=none;dashed=0;verticalLabelPosition=bottom;verticalAlign=top;align=center;html=1;fontSize=12;fontStyle=0;aspect=fixed;pointerEvents=1;shape=mxgraph.aws4.traditional_server;" parent="8OtFmosBrlprI2sc53SW-33" vertex="1">
          <mxGeometry x="59.99999999999999" y="5" width="28.85" height="50" as="geometry" />
        </mxCell>
        <mxCell id="8OtFmosBrlprI2sc53SW-4" value="" style="sketch=0;outlineConnect=0;fontColor=#232F3E;gradientColor=none;fillColor=#232F3D;strokeColor=none;dashed=0;verticalLabelPosition=bottom;verticalAlign=top;align=center;html=1;fontSize=12;fontStyle=0;aspect=fixed;pointerEvents=1;shape=mxgraph.aws4.traditional_server;" parent="8OtFmosBrlprI2sc53SW-33" vertex="1">
          <mxGeometry x="130" y="5" width="28.85" height="50" as="geometry" />
        </mxCell>
        <mxCell id="8OtFmosBrlprI2sc53SW-28" value="1" style="text;html=1;align=center;verticalAlign=middle;whiteSpace=wrap;rounded=0;" parent="8OtFmosBrlprI2sc53SW-33" vertex="1">
          <mxGeometry x="12.919999999999952" y="25" width="23" height="30" as="geometry" />
        </mxCell>
        <mxCell id="8OtFmosBrlprI2sc53SW-29" value="2" style="text;html=1;align=center;verticalAlign=middle;whiteSpace=wrap;rounded=0;" parent="8OtFmosBrlprI2sc53SW-33" vertex="1">
          <mxGeometry x="62.91999999999995" y="25" width="23" height="30" as="geometry" />
        </mxCell>
        <mxCell id="8OtFmosBrlprI2sc53SW-30" value="n" style="text;html=1;align=center;verticalAlign=middle;whiteSpace=wrap;rounded=0;" parent="8OtFmosBrlprI2sc53SW-33" vertex="1">
          <mxGeometry x="132.92999999999995" y="25" width="23" height="30" as="geometry" />
        </mxCell>
        <mxCell id="Txqnq7B-p5NhJyi0DV6z-1" value="" style="group" vertex="1" connectable="0" parent="1">
          <mxGeometry x="40" y="60" width="150" height="90" as="geometry" />
        </mxCell>
        <mxCell id="Txqnq7B-p5NhJyi0DV6z-2" value="Role Master" style="text;html=1;align=center;verticalAlign=middle;whiteSpace=wrap;rounded=0;fontStyle=1" vertex="1" parent="Txqnq7B-p5NhJyi0DV6z-1">
          <mxGeometry x="37.21" y="60" width="75.58" height="30" as="geometry" />
        </mxCell>
        <mxCell id="Txqnq7B-p5NhJyi0DV6z-3" value="" style="rounded=1;whiteSpace=wrap;html=1;fillColor=#dae8fc;strokeColor=#6c8ebf;" vertex="1" parent="Txqnq7B-p5NhJyi0DV6z-1">
          <mxGeometry width="150" height="60" as="geometry" />
        </mxCell>
        <mxCell id="Txqnq7B-p5NhJyi0DV6z-4" value="" style="sketch=0;outlineConnect=0;fontColor=#232F3E;gradientColor=none;fillColor=#232F3D;strokeColor=none;dashed=0;verticalLabelPosition=bottom;verticalAlign=top;align=center;html=1;fontSize=12;fontStyle=0;aspect=fixed;pointerEvents=1;shape=mxgraph.aws4.traditional_server;" vertex="1" parent="Txqnq7B-p5NhJyi0DV6z-1">
          <mxGeometry x="9.999999999999993" y="5" width="28.85" height="50" as="geometry" />
        </mxCell>
        <mxCell id="Txqnq7B-p5NhJyi0DV6z-5" value="" style="sketch=0;outlineConnect=0;fontColor=#232F3E;gradientColor=none;fillColor=#232F3D;strokeColor=none;dashed=0;verticalLabelPosition=bottom;verticalAlign=top;align=center;html=1;fontSize=12;fontStyle=0;aspect=fixed;pointerEvents=1;shape=mxgraph.aws4.traditional_server;" vertex="1" parent="Txqnq7B-p5NhJyi0DV6z-1">
          <mxGeometry x="59.99999999999999" y="5" width="28.85" height="50" as="geometry" />
        </mxCell>
        <mxCell id="Txqnq7B-p5NhJyi0DV6z-6" value="" style="sketch=0;outlineConnect=0;fontColor=#232F3E;gradientColor=none;fillColor=#232F3D;strokeColor=none;dashed=0;verticalLabelPosition=bottom;verticalAlign=top;align=center;html=1;fontSize=12;fontStyle=0;aspect=fixed;pointerEvents=1;shape=mxgraph.aws4.traditional_server;" vertex="1" parent="Txqnq7B-p5NhJyi0DV6z-1">
          <mxGeometry x="110" y="5" width="28.85" height="50" as="geometry" />
        </mxCell>
        <mxCell id="Txqnq7B-p5NhJyi0DV6z-7" value="1" style="text;html=1;align=center;verticalAlign=middle;whiteSpace=wrap;rounded=0;" vertex="1" parent="Txqnq7B-p5NhJyi0DV6z-1">
          <mxGeometry x="12.919999999999952" y="25" width="23" height="30" as="geometry" />
        </mxCell>
        <mxCell id="Txqnq7B-p5NhJyi0DV6z-8" value="2" style="text;html=1;align=center;verticalAlign=middle;whiteSpace=wrap;rounded=0;" vertex="1" parent="Txqnq7B-p5NhJyi0DV6z-1">
          <mxGeometry x="62.91999999999995" y="25" width="23" height="30" as="geometry" />
        </mxCell>
        <mxCell id="Txqnq7B-p5NhJyi0DV6z-9" value="3" style="text;html=1;align=center;verticalAlign=middle;whiteSpace=wrap;rounded=0;" vertex="1" parent="Txqnq7B-p5NhJyi0DV6z-1">
          <mxGeometry x="112.92999999999995" y="25" width="23" height="30" as="geometry" />
        </mxCell>
        <mxCell id="Txqnq7B-p5NhJyi0DV6z-10" value="" style="group" vertex="1" connectable="0" parent="1">
          <mxGeometry x="370" y="310" width="170" height="90" as="geometry" />
        </mxCell>
        <mxCell id="Txqnq7B-p5NhJyi0DV6z-11" value="Role ElasticSearch" style="text;html=1;align=center;verticalAlign=middle;whiteSpace=wrap;rounded=0;fontStyle=1" vertex="1" parent="Txqnq7B-p5NhJyi0DV6z-10">
          <mxGeometry x="28.61" y="60" width="112.79" height="30" as="geometry" />
        </mxCell>
        <mxCell id="Txqnq7B-p5NhJyi0DV6z-12" value="" style="rounded=1;whiteSpace=wrap;html=1;fillColor=#e1d5e7;strokeColor=#9673a6;" vertex="1" parent="Txqnq7B-p5NhJyi0DV6z-10">
          <mxGeometry width="170" height="60" as="geometry" />
        </mxCell>
        <mxCell id="Txqnq7B-p5NhJyi0DV6z-13" value="" style="sketch=0;outlineConnect=0;fontColor=#232F3E;gradientColor=none;fillColor=#232F3D;strokeColor=none;dashed=0;verticalLabelPosition=bottom;verticalAlign=top;align=center;html=1;fontSize=12;fontStyle=0;aspect=fixed;pointerEvents=1;shape=mxgraph.aws4.traditional_server;" vertex="1" parent="Txqnq7B-p5NhJyi0DV6z-10">
          <mxGeometry x="9.999999999999993" y="5" width="28.85" height="50" as="geometry" />
        </mxCell>
        <mxCell id="Txqnq7B-p5NhJyi0DV6z-14" value="" style="sketch=0;outlineConnect=0;fontColor=#232F3E;gradientColor=none;fillColor=#232F3D;strokeColor=none;dashed=0;verticalLabelPosition=bottom;verticalAlign=top;align=center;html=1;fontSize=12;fontStyle=0;aspect=fixed;pointerEvents=1;shape=mxgraph.aws4.traditional_server;" vertex="1" parent="Txqnq7B-p5NhJyi0DV6z-10">
          <mxGeometry x="59.99999999999999" y="5" width="28.85" height="50" as="geometry" />
        </mxCell>
        <mxCell id="Txqnq7B-p5NhJyi0DV6z-15" value="" style="sketch=0;outlineConnect=0;fontColor=#232F3E;gradientColor=none;fillColor=#232F3D;strokeColor=none;dashed=0;verticalLabelPosition=bottom;verticalAlign=top;align=center;html=1;fontSize=12;fontStyle=0;aspect=fixed;pointerEvents=1;shape=mxgraph.aws4.traditional_server;" vertex="1" parent="Txqnq7B-p5NhJyi0DV6z-10">
          <mxGeometry x="130" y="5" width="28.85" height="50" as="geometry" />
        </mxCell>
        <mxCell id="Txqnq7B-p5NhJyi0DV6z-16" value="1" style="text;html=1;align=center;verticalAlign=middle;whiteSpace=wrap;rounded=0;" vertex="1" parent="Txqnq7B-p5NhJyi0DV6z-10">
          <mxGeometry x="12.919999999999952" y="25" width="23" height="30" as="geometry" />
        </mxCell>
        <mxCell id="Txqnq7B-p5NhJyi0DV6z-17" value="2" style="text;html=1;align=center;verticalAlign=middle;whiteSpace=wrap;rounded=0;" vertex="1" parent="Txqnq7B-p5NhJyi0DV6z-10">
          <mxGeometry x="62.91999999999995" y="25" width="23" height="30" as="geometry" />
        </mxCell>
        <mxCell id="Txqnq7B-p5NhJyi0DV6z-18" value="n" style="text;html=1;align=center;verticalAlign=middle;whiteSpace=wrap;rounded=0;" vertex="1" parent="Txqnq7B-p5NhJyi0DV6z-10">
          <mxGeometry x="132.92999999999995" y="25" width="23" height="30" as="geometry" />
        </mxCell>
        <mxCell id="Txqnq7B-p5NhJyi0DV6z-19" value="" style="group" vertex="1" connectable="0" parent="1">
          <mxGeometry x="300" y="480" width="170" height="90" as="geometry" />
        </mxCell>
        <mxCell id="Txqnq7B-p5NhJyi0DV6z-20" value="kv-search-api" style="text;html=1;align=center;verticalAlign=middle;whiteSpace=wrap;rounded=0;fontStyle=1" vertex="1" parent="Txqnq7B-p5NhJyi0DV6z-19">
          <mxGeometry x="43.6" y="60" width="82.79" height="30" as="geometry" />
        </mxCell>
        <mxCell id="Txqnq7B-p5NhJyi0DV6z-21" value="" style="rounded=1;whiteSpace=wrap;html=1;fillColor=#ffe6cc;strokeColor=#d79b00;" vertex="1" parent="Txqnq7B-p5NhJyi0DV6z-19">
          <mxGeometry width="170" height="60" as="geometry" />
        </mxCell>
        <mxCell id="Txqnq7B-p5NhJyi0DV6z-22" value="" style="sketch=0;outlineConnect=0;fontColor=#232F3E;gradientColor=none;fillColor=#232F3D;strokeColor=none;dashed=0;verticalLabelPosition=bottom;verticalAlign=top;align=center;html=1;fontSize=12;fontStyle=0;aspect=fixed;pointerEvents=1;shape=mxgraph.aws4.traditional_server;" vertex="1" parent="Txqnq7B-p5NhJyi0DV6z-19">
          <mxGeometry x="9.999999999999993" y="5" width="28.85" height="50" as="geometry" />
        </mxCell>
        <mxCell id="Txqnq7B-p5NhJyi0DV6z-23" value="" style="sketch=0;outlineConnect=0;fontColor=#232F3E;gradientColor=none;fillColor=#232F3D;strokeColor=none;dashed=0;verticalLabelPosition=bottom;verticalAlign=top;align=center;html=1;fontSize=12;fontStyle=0;aspect=fixed;pointerEvents=1;shape=mxgraph.aws4.traditional_server;" vertex="1" parent="Txqnq7B-p5NhJyi0DV6z-19">
          <mxGeometry x="59.99999999999999" y="5" width="28.85" height="50" as="geometry" />
        </mxCell>
        <mxCell id="Txqnq7B-p5NhJyi0DV6z-24" value="" style="sketch=0;outlineConnect=0;fontColor=#232F3E;gradientColor=none;fillColor=#232F3D;strokeColor=none;dashed=0;verticalLabelPosition=bottom;verticalAlign=top;align=center;html=1;fontSize=12;fontStyle=0;aspect=fixed;pointerEvents=1;shape=mxgraph.aws4.traditional_server;" vertex="1" parent="Txqnq7B-p5NhJyi0DV6z-19">
          <mxGeometry x="130" y="5" width="28.85" height="50" as="geometry" />
        </mxCell>
        <mxCell id="Txqnq7B-p5NhJyi0DV6z-25" value="1" style="text;html=1;align=center;verticalAlign=middle;whiteSpace=wrap;rounded=0;" vertex="1" parent="Txqnq7B-p5NhJyi0DV6z-19">
          <mxGeometry x="12.919999999999952" y="25" width="23" height="30" as="geometry" />
        </mxCell>
        <mxCell id="Txqnq7B-p5NhJyi0DV6z-26" value="2" style="text;html=1;align=center;verticalAlign=middle;whiteSpace=wrap;rounded=0;" vertex="1" parent="Txqnq7B-p5NhJyi0DV6z-19">
          <mxGeometry x="62.91999999999995" y="25" width="23" height="30" as="geometry" />
        </mxCell>
        <mxCell id="Txqnq7B-p5NhJyi0DV6z-27" value="n" style="text;html=1;align=center;verticalAlign=middle;whiteSpace=wrap;rounded=0;" vertex="1" parent="Txqnq7B-p5NhJyi0DV6z-19">
          <mxGeometry x="132.92999999999995" y="25" width="23" height="30" as="geometry" />
        </mxCell>
        <mxCell id="Txqnq7B-p5NhJyi0DV6z-28" value="" style="group" vertex="1" connectable="0" parent="1">
          <mxGeometry x="570" y="160" width="170" height="90" as="geometry" />
        </mxCell>
        <mxCell id="Txqnq7B-p5NhJyi0DV6z-29" value="logstash-jdbc" style="text;html=1;align=center;verticalAlign=middle;whiteSpace=wrap;rounded=0;fontStyle=1" vertex="1" parent="Txqnq7B-p5NhJyi0DV6z-28">
          <mxGeometry x="43.6" y="60" width="82.79" height="30" as="geometry" />
        </mxCell>
        <mxCell id="Txqnq7B-p5NhJyi0DV6z-30" value="" style="rounded=1;whiteSpace=wrap;html=1;fillColor=#b0e3e6;strokeColor=#0e8088;" vertex="1" parent="Txqnq7B-p5NhJyi0DV6z-28">
          <mxGeometry width="170" height="60" as="geometry" />
        </mxCell>
        <mxCell id="Txqnq7B-p5NhJyi0DV6z-31" value="" style="sketch=0;outlineConnect=0;fontColor=#232F3E;gradientColor=none;fillColor=#232F3D;strokeColor=none;dashed=0;verticalLabelPosition=bottom;verticalAlign=top;align=center;html=1;fontSize=12;fontStyle=0;aspect=fixed;pointerEvents=1;shape=mxgraph.aws4.traditional_server;" vertex="1" parent="Txqnq7B-p5NhJyi0DV6z-28">
          <mxGeometry x="9.999999999999993" y="5" width="28.85" height="50" as="geometry" />
        </mxCell>
        <mxCell id="Txqnq7B-p5NhJyi0DV6z-32" value="" style="sketch=0;outlineConnect=0;fontColor=#232F3E;gradientColor=none;fillColor=#232F3D;strokeColor=none;dashed=0;verticalLabelPosition=bottom;verticalAlign=top;align=center;html=1;fontSize=12;fontStyle=0;aspect=fixed;pointerEvents=1;shape=mxgraph.aws4.traditional_server;" vertex="1" parent="Txqnq7B-p5NhJyi0DV6z-28">
          <mxGeometry x="59.99999999999999" y="5" width="28.85" height="50" as="geometry" />
        </mxCell>
        <mxCell id="Txqnq7B-p5NhJyi0DV6z-33" value="" style="sketch=0;outlineConnect=0;fontColor=#232F3E;gradientColor=none;fillColor=#232F3D;strokeColor=none;dashed=0;verticalLabelPosition=bottom;verticalAlign=top;align=center;html=1;fontSize=12;fontStyle=0;aspect=fixed;pointerEvents=1;shape=mxgraph.aws4.traditional_server;" vertex="1" parent="Txqnq7B-p5NhJyi0DV6z-28">
          <mxGeometry x="130" y="5" width="28.85" height="50" as="geometry" />
        </mxCell>
        <mxCell id="Txqnq7B-p5NhJyi0DV6z-34" value="1" style="text;html=1;align=center;verticalAlign=middle;whiteSpace=wrap;rounded=0;" vertex="1" parent="Txqnq7B-p5NhJyi0DV6z-28">
          <mxGeometry x="12.919999999999952" y="25" width="23" height="30" as="geometry" />
        </mxCell>
        <mxCell id="Txqnq7B-p5NhJyi0DV6z-35" value="2" style="text;html=1;align=center;verticalAlign=middle;whiteSpace=wrap;rounded=0;" vertex="1" parent="Txqnq7B-p5NhJyi0DV6z-28">
          <mxGeometry x="62.91999999999995" y="25" width="23" height="30" as="geometry" />
        </mxCell>
        <mxCell id="Txqnq7B-p5NhJyi0DV6z-36" value="n" style="text;html=1;align=center;verticalAlign=middle;whiteSpace=wrap;rounded=0;" vertex="1" parent="Txqnq7B-p5NhJyi0DV6z-28">
          <mxGeometry x="132.92999999999995" y="25" width="23" height="30" as="geometry" />
        </mxCell>
        <mxCell id="Txqnq7B-p5NhJyi0DV6z-37" value="" style="group" vertex="1" connectable="0" parent="1">
          <mxGeometry x="590" y="390" width="170" height="90" as="geometry" />
        </mxCell>
        <mxCell id="Txqnq7B-p5NhJyi0DV6z-38" value="logstash-kafka" style="text;html=1;align=center;verticalAlign=middle;whiteSpace=wrap;rounded=0;fontStyle=1" vertex="1" parent="Txqnq7B-p5NhJyi0DV6z-37">
          <mxGeometry x="36.800000000000004" y="60" width="96.4" height="30" as="geometry" />
        </mxCell>
        <mxCell id="Txqnq7B-p5NhJyi0DV6z-39" value="" style="rounded=1;whiteSpace=wrap;html=1;fillColor=#bac8d3;strokeColor=#23445d;" vertex="1" parent="Txqnq7B-p5NhJyi0DV6z-37">
          <mxGeometry width="170" height="60" as="geometry" />
        </mxCell>
        <mxCell id="Txqnq7B-p5NhJyi0DV6z-40" value="" style="sketch=0;outlineConnect=0;fontColor=#232F3E;gradientColor=none;fillColor=#232F3D;strokeColor=none;dashed=0;verticalLabelPosition=bottom;verticalAlign=top;align=center;html=1;fontSize=12;fontStyle=0;aspect=fixed;pointerEvents=1;shape=mxgraph.aws4.traditional_server;" vertex="1" parent="Txqnq7B-p5NhJyi0DV6z-37">
          <mxGeometry x="9.999999999999993" y="5" width="28.85" height="50" as="geometry" />
        </mxCell>
        <mxCell id="Txqnq7B-p5NhJyi0DV6z-41" value="" style="sketch=0;outlineConnect=0;fontColor=#232F3E;gradientColor=none;fillColor=#232F3D;strokeColor=none;dashed=0;verticalLabelPosition=bottom;verticalAlign=top;align=center;html=1;fontSize=12;fontStyle=0;aspect=fixed;pointerEvents=1;shape=mxgraph.aws4.traditional_server;" vertex="1" parent="Txqnq7B-p5NhJyi0DV6z-37">
          <mxGeometry x="59.99999999999999" y="5" width="28.85" height="50" as="geometry" />
        </mxCell>
        <mxCell id="Txqnq7B-p5NhJyi0DV6z-42" value="" style="sketch=0;outlineConnect=0;fontColor=#232F3E;gradientColor=none;fillColor=#232F3D;strokeColor=none;dashed=0;verticalLabelPosition=bottom;verticalAlign=top;align=center;html=1;fontSize=12;fontStyle=0;aspect=fixed;pointerEvents=1;shape=mxgraph.aws4.traditional_server;" vertex="1" parent="Txqnq7B-p5NhJyi0DV6z-37">
          <mxGeometry x="130" y="5" width="28.85" height="50" as="geometry" />
        </mxCell>
        <mxCell id="Txqnq7B-p5NhJyi0DV6z-43" value="1" style="text;html=1;align=center;verticalAlign=middle;whiteSpace=wrap;rounded=0;" vertex="1" parent="Txqnq7B-p5NhJyi0DV6z-37">
          <mxGeometry x="12.919999999999952" y="25" width="23" height="30" as="geometry" />
        </mxCell>
        <mxCell id="Txqnq7B-p5NhJyi0DV6z-44" value="2" style="text;html=1;align=center;verticalAlign=middle;whiteSpace=wrap;rounded=0;" vertex="1" parent="Txqnq7B-p5NhJyi0DV6z-37">
          <mxGeometry x="62.91999999999995" y="25" width="23" height="30" as="geometry" />
        </mxCell>
        <mxCell id="Txqnq7B-p5NhJyi0DV6z-45" value="n" style="text;html=1;align=center;verticalAlign=middle;whiteSpace=wrap;rounded=0;" vertex="1" parent="Txqnq7B-p5NhJyi0DV6z-37">
          <mxGeometry x="132.92999999999995" y="25" width="23" height="30" as="geometry" />
        </mxCell>
        <mxCell id="Txqnq7B-p5NhJyi0DV6z-46" value="" style="group" vertex="1" connectable="0" parent="1">
          <mxGeometry x="490" y="570" width="170" height="90" as="geometry" />
        </mxCell>
        <mxCell id="Txqnq7B-p5NhJyi0DV6z-47" value="Monitor" style="text;html=1;align=center;verticalAlign=middle;whiteSpace=wrap;rounded=0;fontStyle=1" vertex="1" parent="Txqnq7B-p5NhJyi0DV6z-46">
          <mxGeometry x="43.6" y="60" width="82.79" height="30" as="geometry" />
        </mxCell>
        <mxCell id="Txqnq7B-p5NhJyi0DV6z-48" value="" style="rounded=1;whiteSpace=wrap;html=1;fillColor=#b1ddf0;strokeColor=#10739e;" vertex="1" parent="Txqnq7B-p5NhJyi0DV6z-46">
          <mxGeometry width="170" height="60" as="geometry" />
        </mxCell>
        <mxCell id="Txqnq7B-p5NhJyi0DV6z-49" value="" style="sketch=0;outlineConnect=0;fontColor=#232F3E;gradientColor=none;fillColor=#232F3D;strokeColor=none;dashed=0;verticalLabelPosition=bottom;verticalAlign=top;align=center;html=1;fontSize=12;fontStyle=0;aspect=fixed;pointerEvents=1;shape=mxgraph.aws4.traditional_server;" vertex="1" parent="Txqnq7B-p5NhJyi0DV6z-46">
          <mxGeometry x="9.999999999999993" y="5" width="28.85" height="50" as="geometry" />
        </mxCell>
        <mxCell id="Txqnq7B-p5NhJyi0DV6z-50" value="" style="sketch=0;outlineConnect=0;fontColor=#232F3E;gradientColor=none;fillColor=#232F3D;strokeColor=none;dashed=0;verticalLabelPosition=bottom;verticalAlign=top;align=center;html=1;fontSize=12;fontStyle=0;aspect=fixed;pointerEvents=1;shape=mxgraph.aws4.traditional_server;" vertex="1" parent="Txqnq7B-p5NhJyi0DV6z-46">
          <mxGeometry x="59.99999999999999" y="5" width="28.85" height="50" as="geometry" />
        </mxCell>
        <mxCell id="Txqnq7B-p5NhJyi0DV6z-51" value="" style="sketch=0;outlineConnect=0;fontColor=#232F3E;gradientColor=none;fillColor=#232F3D;strokeColor=none;dashed=0;verticalLabelPosition=bottom;verticalAlign=top;align=center;html=1;fontSize=12;fontStyle=0;aspect=fixed;pointerEvents=1;shape=mxgraph.aws4.traditional_server;" vertex="1" parent="Txqnq7B-p5NhJyi0DV6z-46">
          <mxGeometry x="130" y="5" width="28.85" height="50" as="geometry" />
        </mxCell>
        <mxCell id="Txqnq7B-p5NhJyi0DV6z-52" value="1" style="text;html=1;align=center;verticalAlign=middle;whiteSpace=wrap;rounded=0;" vertex="1" parent="Txqnq7B-p5NhJyi0DV6z-46">
          <mxGeometry x="12.919999999999952" y="25" width="23" height="30" as="geometry" />
        </mxCell>
        <mxCell id="Txqnq7B-p5NhJyi0DV6z-53" value="2" style="text;html=1;align=center;verticalAlign=middle;whiteSpace=wrap;rounded=0;" vertex="1" parent="Txqnq7B-p5NhJyi0DV6z-46">
          <mxGeometry x="62.91999999999995" y="25" width="23" height="30" as="geometry" />
        </mxCell>
        <mxCell id="Txqnq7B-p5NhJyi0DV6z-54" value="n" style="text;html=1;align=center;verticalAlign=middle;whiteSpace=wrap;rounded=0;" vertex="1" parent="Txqnq7B-p5NhJyi0DV6z-46">
          <mxGeometry x="132.92999999999995" y="25" width="23" height="30" as="geometry" />
        </mxCell>
      </root>
    </mxGraphModel>
  </diagram>
</mxfile>
